<svg xmlns="http://www.w3.org/2000/svg" width="597" height="344" viewBox="0 0 597 344" version="1.1"><path d="M 0 172.002 L 0 344.003 298.750 343.752 L 597.500 343.500 597.753 171.750 L 598.006 -0 299.003 -0 L 0 0 0 172.002 M 0.489 172.500 C 0.489 267.100, 0.606 305.652, 0.750 258.171 C 0.894 210.690, 0.894 133.290, 0.750 86.171 C 0.606 39.052, 0.489 77.900, 0.489 172.500 M 326.635 37.250 C 319.196 44.804, 309.964 59.186, 304.007 72.500 C 299.957 81.550, 301.179 80.071, 308.966 66.500 C 320.407 46.559, 330.626 33.885, 336.439 32.426 C 340.767 31.340, 342.437 32.369, 345 37.705 C 348.081 44.119, 349.414 44.570, 347.345 38.498 C 345.472 33.003, 341.906 30, 337.252 30 C 334.258 30, 332.782 31.008, 326.635 37.250 M 301.160 37.307 C 299.025 39.879, 296.957 50.700, 296.345 62.500 C 296.002 69.100, 295.963 74.275, 296.259 74 C 296.554 73.725, 297.558 67.493, 298.490 60.151 C 300.332 45.635, 301.929 38.857, 303.642 38.286 C 304.246 38.085, 305.676 39.850, 306.820 42.210 C 309.288 47.300, 309.689 45.762, 307.391 40.020 C 305.729 35.865, 303.252 34.787, 301.160 37.307 M 253.347 51.611 C 250.681 54.147, 249.625 55.500, 251 54.616 C 259.588 49.098, 264.482 48.345, 270.174 51.669 C 274.684 54.302, 282.118 63.740, 286.917 72.925 C 292.613 83.829, 294.469 85.988, 292.117 78.978 C 287.748 65.954, 280.160 54.326, 273.115 49.858 C 269.644 47.657, 267.412 47, 263.401 47 C 258.578 47, 257.836 47.340, 253.347 51.611 M 348 48.941 C 348 51.128, 349.562 52.518, 350.434 51.107 C 351.165 49.924, 350.067 47, 348.893 47 C 348.402 47, 348 47.873, 348 48.941 M 349 54.441 C 349 55.234, 349.450 56.160, 350 56.500 C 350.550 56.840, 351 56.191, 351 55.059 C 351 53.927, 350.550 53, 350 53 C 349.450 53, 349 53.648, 349 54.441 M 245.131 59.342 C 244.519 60.080, 244.310 60.976, 244.667 61.333 C 245.417 62.084, 248 60.181, 248 58.878 C 248 57.561, 246.393 57.821, 245.131 59.342 M 242.046 63.914 C 241.272 65.361, 241.257 66, 241.996 66 C 243.209 66, 244.529 63.195, 243.705 62.371 C 243.406 62.073, 242.660 62.767, 242.046 63.914 M 329.440 63.937 C 323.350 65.395, 316.720 69.561, 309.185 76.663 C 300.146 85.183, 300.123 86.398, 309.149 78.526 C 324.761 64.910, 338.445 62.304, 347.161 71.285 L 351.212 75.460 343.512 76.650 C 338.459 77.431, 332.939 79.220, 327.451 81.853 C 319.544 85.647, 307 93.463, 307 94.596 C 307 95.204, 306.509 95.459, 315.557 90.145 C 324.993 84.605, 338.016 79.966, 346.022 79.295 L 352.555 78.747 354.272 84.194 C 355.216 87.190, 356.279 91.759, 356.634 94.348 C 356.989 96.937, 357.578 99.239, 357.942 99.464 C 358.874 100.040, 357.253 85.796, 356.018 82.547 C 355.458 81.075, 355 79.716, 355 79.529 C 355 78.249, 362.792 81.986, 366.192 84.896 C 373.487 91.140, 380 109.610, 380 124.051 C 380 126.708, 380.496 129.189, 381.102 129.563 C 382.556 130.461, 381.375 112.974, 379.376 104 C 376.084 89.217, 367.713 79.169, 356.500 76.541 C 354.594 76.094, 352.403 74.318, 350.492 71.669 C 345.460 64.696, 337.888 61.915, 329.440 63.937 M 239.729 67.604 C 239.328 68.005, 239 69.023, 239 69.867 C 239 70.992, 239.296 71.104, 240.113 70.287 C 240.724 69.676, 241.053 68.657, 240.842 68.025 C 240.631 67.392, 240.130 67.203, 239.729 67.604 M 258.517 72.413 C 256.611 74.435, 254.259 78.319, 253.291 81.044 C 252.235 84.018, 250.925 86.004, 250.015 86.010 C 246.684 86.031, 238.282 90.928, 234.635 94.973 C 230.399 99.672, 226.628 107.143, 225.158 113.750 C 224.638 116.088, 224.376 118, 224.576 118 C 224.776 118, 226.511 114.599, 228.431 110.443 C 230.352 106.286, 233.280 101.171, 234.939 99.077 C 237.962 95.260, 248.306 88.973, 249.537 90.203 C 249.897 90.564, 249.731 93.022, 249.167 95.667 C 247.679 102.640, 248.634 102.287, 250.624 95.127 L 252.328 89 257.914 89.058 C 260.986 89.089, 266.538 89.908, 270.250 90.876 C 273.962 91.844, 277 92.300, 277 91.890 C 277 90.531, 265.596 86.810, 259.750 86.261 C 256.587 85.965, 254 85.317, 254 84.821 C 254 84.326, 254.856 82.251, 255.903 80.210 C 262.156 68.016, 270.574 68.979, 283.605 83.379 C 290.326 90.806, 290.674 89.540, 284.134 81.457 C 278.179 74.097, 272.012 69.868, 266.294 69.224 C 262.344 68.779, 261.693 69.046, 258.517 72.413 M 311.848 81.881 C 309.350 83.466, 307.026 85.491, 306.684 86.381 C 305.811 88.656, 306.398 88.459, 312.276 84.500 C 315.135 82.575, 318.154 80.993, 318.987 80.985 C 319.819 80.976, 321.175 80.533, 322 80 C 323.124 79.274, 322.609 79.027, 319.946 79.015 C 317.726 79.006, 314.685 80.082, 311.848 81.881 M 296.156 86.195 C 294.366 94.193, 293.491 94.585, 286.645 90.461 C 283.485 88.557, 280.687 87, 280.427 87 C 280.166 87, 281.764 89.290, 283.977 92.090 C 286.190 94.889, 288 97.579, 288 98.067 C 288 98.554, 285.710 100.764, 282.910 102.977 C 277.080 107.586, 277.227 107.687, 285.839 104.987 C 289.326 103.894, 292.615 103, 293.149 103 C 293.683 103, 296.499 105.250, 299.406 108 C 302.314 110.750, 304.967 113, 305.301 113 C 305.635 113, 304.822 110.656, 303.495 107.792 C 302.168 104.928, 301.201 102.466, 301.345 102.321 C 301.490 102.177, 303.946 102.428, 306.804 102.880 C 309.662 103.332, 312 103.519, 312 103.296 C 312 103.072, 309.482 101.776, 306.404 100.415 C 300.835 97.952, 300.816 97.929, 302.404 95.506 C 304.498 92.310, 304.418 91.706, 302.066 92.965 C 299.169 94.515, 299.008 94.353, 298.900 89.750 C 298.845 87.412, 298.490 84.385, 298.110 83.022 C 297.526 80.923, 297.227 81.407, 296.156 86.195 M 316.750 95.662 C 312.163 96.447, 313.672 98.007, 318.393 97.360 C 324.142 96.572, 335.182 98.517, 341.655 101.460 C 344.491 102.748, 348.634 105.681, 350.862 107.977 C 354.760 111.994, 359 120.882, 359 125.038 C 359 126.117, 359.367 127, 359.816 127 C 361.253 127, 359.346 115.598, 357.208 111.408 C 354.597 106.291, 348.094 100.381, 342.122 97.699 C 337.524 95.634, 323.493 94.508, 316.750 95.662 M 270.786 99.867 C 253.901 104.271, 242.376 118.848, 241.427 137 L 241.035 144.500 242.486 138.260 C 245.620 124.772, 252.235 113.687, 260.570 107.952 C 265.731 104.401, 275.920 100, 278.980 100 C 280.091 100, 281 99.550, 281 99 C 281 97.621, 278.622 97.823, 270.786 99.867 M 319.645 100.765 C 319.312 101.304, 320.519 101.985, 322.326 102.278 C 326.120 102.894, 331.401 105.162, 335 107.722 L 337.500 109.500 335.885 107 C 334.997 105.625, 332.969 103.735, 331.380 102.801 C 327.802 100.698, 320.473 99.426, 319.645 100.765 M 271.234 107.004 C 266.949 109.610, 262.301 116.246, 260.490 122.345 C 258.398 129.390, 258.670 132.562, 260.889 127 C 264.721 117.391, 267.344 112.922, 271.185 109.452 C 275.793 105.289, 275.814 104.218, 271.234 107.004 M 321 106.675 C 321 107.269, 321.713 108.347, 322.584 109.070 C 329.691 114.968, 338.453 134.621, 344.398 158 C 347.147 168.808, 347.781 166.339, 345.434 153.968 C 343.349 142.976, 338.023 128.329, 333.136 120.149 C 329.275 113.688, 321 104.499, 321 106.675 M 310 109.521 C 310 109.808, 311.117 111.731, 312.483 113.795 C 317.138 120.829, 319.126 131.525, 319.730 152.777 C 320.032 163.380, 320.509 171.824, 320.791 171.542 C 322.069 170.265, 322.767 151.451, 321.905 141.527 C 320.765 128.403, 318.090 118.805, 313.998 113.156 C 311.218 109.318, 310 108.211, 310 109.521 M 280.735 115.212 C 271.167 129.626, 264 149.290, 264 161.125 C 264 165.932, 264.795 164.226, 266.419 155.935 C 268.554 145.036, 272.153 135.370, 278.948 122.275 C 282.267 115.880, 284.817 110.484, 284.616 110.282 C 284.415 110.081, 282.668 112.300, 280.735 115.212 M 297.217 118.250 C 298.241 122.237, 299.648 130.675, 300.344 137 C 301.434 146.912, 301.714 147.966, 302.371 144.634 C 303.667 138.069, 301.132 120.773, 297.804 113.470 C 295.650 108.741, 295.367 111.047, 297.217 118.250 M 287.471 115.416 C 286.425 117.919, 286.012 121.492, 286.210 126.319 C 286.445 132.034, 286.639 132.785, 287.161 130 C 288.629 122.172, 289.869 112.536, 289.461 112.128 C 289.222 111.889, 288.326 113.368, 287.471 115.416 M 222.444 122.285 C 221.504 124.735, 223.048 126.665, 224.242 124.532 C 224.881 123.390, 224.845 122.445, 224.136 121.736 C 223.375 120.975, 222.886 121.134, 222.444 122.285 M 222 129 C 222 130.867, 222.267 131.133, 223.200 130.200 C 224.133 129.267, 224.133 128.733, 223.200 127.800 C 222.267 126.867, 222 127.133, 222 129 M 359 130.882 C 359 131.982, 359.450 133.160, 360 133.500 C 360.550 133.840, 361 133.218, 361 132.118 C 361 131.018, 360.550 129.840, 360 129.500 C 359.450 129.160, 359 129.782, 359 130.882 M 359 137 C 359 138.867, 359.267 139.133, 360.200 138.200 C 361.133 137.267, 361.133 136.733, 360.200 135.800 C 359.267 134.867, 359 135.133, 359 137 M 380 137.083 C 380 139.520, 382.337 139.176, 382.823 136.667 C 383.015 135.680, 382.505 135, 381.573 135 C 380.646 135, 380 135.855, 380 137.083 M 380 141.941 C 380 143.073, 380.450 144, 381 144 C 381.550 144, 382 143.352, 382 142.559 C 382 141.766, 381.550 140.840, 381 140.500 C 380.450 140.160, 380 140.809, 380 141.941 M 240 148.441 C 240 149.234, 240.450 150.160, 241 150.500 C 241.550 150.840, 242 150.191, 242 149.059 C 242 147.927, 241.550 147, 241 147 C 240.450 147, 240 147.648, 240 148.441 M 240.446 153.087 C 240.077 153.685, 240.275 154.675, 240.887 155.287 C 241.704 156.104, 242 155.815, 242 154.200 C 242 151.785, 241.481 151.413, 240.446 153.087 M 300.500 154 C 299.684 155.320, 300.880 157.192, 302.069 156.457 C 303.284 155.707, 303.276 153, 302.059 153 C 301.541 153, 300.840 153.450, 300.500 154 M 300 160.500 C 300 161.325, 300.450 162, 301 162 C 301.550 162, 302 161.325, 302 160.500 C 302 159.675, 301.550 159, 301 159 C 300.450 159, 300 159.675, 300 160.500 M 347 173.382 C 347 174.207, 347.450 175.160, 348 175.500 C 348.550 175.840, 349 175.443, 349 174.618 C 349 173.793, 348.550 172.840, 348 172.500 C 347.450 172.160, 347 172.557, 347 173.382 M 36.894 223.901 L 40 226.802 39.968 262.151 C 39.934 299.907, 39.935 299.900, 34.909 301.910 C 33.254 302.572, 39.781 302.893, 55.750 302.937 C 76.464 302.993, 79 302.825, 79 301.393 C 79 300.230, 78.517 300.003, 77.250 300.572 C 76.287 301.004, 69.537 301.547, 62.250 301.777 L 49 302.196 49 283.848 L 49 265.500 54.250 265.405 C 72.680 265.072, 77.512 264.661, 74.308 263.701 C 72.344 263.112, 67.921 263.082, 62.808 263.622 C 58.239 264.105, 53.263 264.358, 51.750 264.184 L 49 263.867 49 242.815 L 49 221.764 61.750 222.184 C 69.173 222.428, 75.440 223.119, 76.750 223.837 C 78.750 224.934, 79 224.845, 79 223.035 C 79 221.048, 78.464 221, 56.394 221 L 33.788 221 36.894 223.901 M 326 258.777 C 326 299.543, 325.960 299.863, 320.643 302.008 C 319.157 302.608, 320.800 302.872, 326 302.869 C 331.877 302.866, 333.038 302.641, 331.365 301.831 C 327.108 299.770, 326.941 298.169, 327.227 262.210 L 327.500 227.920 342.785 255.931 L 358.070 283.942 356.035 287.931 C 353.087 293.711, 353.306 299.499, 356.554 301.628 C 360.594 304.274, 365.042 303.633, 368.356 299.926 C 370.806 297.185, 371.124 296.179, 370.593 292.858 C 370.253 290.728, 368.528 286.053, 366.761 282.469 C 364.035 276.941, 363.735 275.654, 364.782 273.977 C 366.206 271.698, 365.268 271.282, 363.610 273.457 C 362.726 274.617, 359.550 269.432, 348 247.970 L 333.500 221.025 329.750 221.013 L 326 221 326 258.777 M 391.541 222.750 C 391.170 223.713, 390.911 240.946, 390.965 261.046 L 391.063 297.592 388.782 299.669 C 387.527 300.811, 385.825 301.992, 385 302.294 C 384.175 302.595, 388.900 302.842, 395.500 302.842 C 404.284 302.842, 406.802 302.586, 404.894 301.886 C 400.193 300.160, 400 298.451, 400 258.453 L 400 221 396.107 221 C 393.323 221, 392.022 221.498, 391.541 222.750 M 382.217 239.944 C 378.365 247.125, 375.503 252.990, 375.857 252.977 C 376.777 252.943, 390.294 227.961, 389.708 227.375 C 389.441 227.107, 386.070 232.763, 382.217 239.944 M 293.740 235.614 C 293.107 241.229, 290.215 245.391, 286.651 245.816 C 282.753 246.282, 283.421 248, 287.500 248 L 291 248 291 270.532 C 291 294.726, 291.574 298.188, 296.117 301.369 C 297.397 302.266, 300.257 302.986, 302.473 302.970 C 305.825 302.944, 306.191 302.759, 304.656 301.867 C 300.650 299.539, 300 295.243, 300 271.092 L 300 248.121 303.750 247.728 C 305.813 247.513, 303.946 247.261, 299.602 247.168 L 291.704 247 295.078 244.726 C 299.221 241.935, 303 236.508, 303 233.352 C 303 231.241, 302.551 231, 298.630 231 L 294.260 231 293.740 235.614 M 554.771 236.033 C 554.251 241.445, 551.104 246, 547.885 246 C 546.913 246, 545.840 246.450, 545.500 247 C 545.132 247.595, 546.323 248, 548.441 248 L 552 248 552.006 269.750 C 552.009 281.712, 552.474 293.167, 553.040 295.205 C 554.413 300.148, 558.188 303, 563.357 303 C 567.274 303, 567.356 302.937, 565.306 301.502 C 561.967 299.163, 561 291.862, 561 269.008 L 561 248.115 565.250 247.732 C 567.587 247.522, 565.675 247.260, 561 247.152 L 552.500 246.954 556.029 244.907 C 559.923 242.647, 563.422 237.986, 564.402 233.750 C 565.029 231.038, 564.970 231, 560.146 231 L 555.254 231 554.771 236.033 M 87.731 248.750 C 89.386 250.297, 91.462 253.907, 92.474 257 C 95.067 264.924, 96.966 268.344, 104.689 279 C 112.798 290.189, 115.297 294.340, 116.962 299.384 C 118.134 302.936, 118.371 303.092, 122.167 302.803 L 126.144 302.500 135.528 277.500 C 144.803 252.791, 145.766 250.982, 151.606 247.309 C 153.176 246.322, 152.234 246.108, 146.104 246.059 L 138.708 246 141.446 248.538 C 142.953 249.934, 143.976 251.621, 143.720 252.288 C 143.465 252.955, 139.504 263.533, 134.918 275.795 L 126.581 298.090 124.157 293.295 C 122.824 290.658, 118.473 284, 114.488 278.500 C 103.879 263.858, 98.171 251.429, 100.832 248.768 C 103.133 246.467, 101.877 246, 93.394 246 L 84.788 246 87.731 248.750 M 177.500 247.236 C 165.655 251.493, 158.171 262.014, 158.056 274.572 C 157.904 291.044, 168.666 302.397, 184.500 302.468 C 190.348 302.495, 192.260 302.053, 196.117 299.786 C 202.528 296.017, 209.424 288.147, 217.504 275.376 C 227.401 259.734, 232.593 253.248, 237.031 250.984 C 244.122 247.367, 250.479 248.818, 254.275 254.922 C 256.339 258.240, 256.524 259.899, 256.827 277.777 L 257.154 297.054 253.971 300.027 L 250.788 303 262.144 302.937 C 269.574 302.895, 272.759 302.574, 271.357 302.008 C 266.601 300.089, 266 297.672, 266 280.459 C 266 261.300, 264.773 255.764, 259.502 251.136 C 255.245 247.398, 249.149 245.635, 243.637 246.547 C 238.408 247.413, 236.304 248.479, 232.250 252.316 L 229 255.392 229 250.696 L 229 246 220.750 246.032 C 213.278 246.061, 212.683 246.202, 214.441 247.532 C 215.509 248.339, 216.674 249, 217.031 249 C 218.663 249, 220 254.767, 220 261.806 C 220 269.500, 219.987 269.537, 214.379 278.009 C 208.198 287.346, 201.296 295, 196.194 298.175 C 191.728 300.954, 184.707 300.962, 179.334 298.192 C 160.988 288.736, 175.405 270.950, 203.477 268.406 L 211.038 267.721 210.384 264.110 C 208.885 255.840, 203.704 249.684, 196.101 247.138 C 191.902 245.732, 181.532 245.787, 177.500 247.236 M 442.920 247.063 C 433.575 248.537, 425.147 254.934, 420.846 263.819 C 417.859 269.988, 417.775 281.528, 420.668 288 C 422.991 293.198, 429.283 299.254, 434.728 301.535 C 440.742 304.054, 449.903 304.525, 455.665 302.611 C 461.354 300.722, 467.135 295.342, 469.451 289.782 C 471.244 285.478, 471.312 285, 470.125 285 C 469.644 285, 468.993 286.287, 468.678 287.860 C 467.242 295.041, 458.547 301, 449.508 301 C 442.433 301, 438.323 299.270, 434.177 294.549 C 431.419 291.408, 430.991 290.288, 431.541 287.650 C 432.471 283.179, 434.464 280.401, 439.201 276.969 C 444.426 273.184, 454.278 270.120, 463.813 269.314 L 471.221 268.688 470.706 264.844 C 469.815 258.199, 465.676 252.466, 459.751 249.670 C 453.568 246.752, 449.193 246.075, 442.920 247.063 M 506.407 247.033 C 496.833 248.925, 489.118 254.541, 484.992 262.621 C 482.914 266.689, 482.500 268.913, 482.500 276 C 482.500 283.220, 482.893 285.253, 485.111 289.500 C 491.642 302.008, 509.889 307.711, 522.572 301.208 C 528.855 297.987, 534.054 290.950, 533.956 285.800 C 533.924 284.126, 533.530 284.573, 532.508 287.442 C 529.286 296.486, 522.619 301, 512.482 301 C 507.471 301, 505.552 300.507, 502.495 298.432 C 496.300 294.228, 494.883 292.042, 495.410 287.506 C 496.507 278.080, 513.791 269, 530.636 269 C 535.422 269, 535.496 268.854, 533.896 262.501 C 531.139 251.551, 518.769 244.591, 506.407 247.033 M 180.500 248.491 C 172.137 251.472, 166.994 260.978, 167.006 273.432 C 167.009 276.769, 167.499 281.258, 168.096 283.406 L 169.180 287.313 170.961 283.336 C 174.246 275.998, 182.816 270.817, 196.250 268.045 C 203.052 266.641, 203.463 265.307, 199.517 257.446 C 195.421 249.286, 188.031 245.806, 180.500 248.491 M 441.500 248.733 C 430.736 251.428, 423.865 271.608, 428.986 285.486 C 429.627 287.222, 429.979 286.961, 431.793 283.405 C 432.935 281.168, 435.555 278.051, 437.617 276.478 C 441.897 273.214, 451.434 269.507, 458.139 268.502 L 462.698 267.818 462.018 264.159 C 459.908 252.814, 451.238 246.295, 441.500 248.733 M 503.500 249.417 C 499.510 251.198, 495.476 255.616, 493.484 260.384 C 491.196 265.861, 490.480 276.662, 491.988 282.948 L 493.242 288.176 494.979 284.297 C 498.198 277.105, 507.631 271.275, 519.854 268.922 L 526.207 267.699 525.560 263.599 C 524.633 257.728, 520.625 252.187, 515.684 249.943 C 510.771 247.713, 507.623 247.577, 503.500 249.417 M 372.319 258.069 C 371.135 260.231, 370.495 262, 370.898 262 C 371.679 262, 375.295 254.962, 374.779 254.446 C 374.610 254.277, 373.503 255.908, 372.319 258.069 M 224.250 266.864 L 220 273.228 220 285.213 L 220 297.198 216.894 300.099 L 213.788 303 225.144 302.937 C 232.145 302.898, 235.720 302.557, 234.465 302.048 C 229.896 300.196, 229.525 298.641, 229 279.100 L 228.500 260.500 224.250 266.864 M 367.333 267.008 C 366.141 269.204, 365.466 270.996, 365.833 270.992 C 366.200 270.987, 367.475 269.187, 368.667 266.992 C 369.859 264.796, 370.534 263.004, 370.167 263.008 C 369.800 263.013, 368.525 264.813, 367.333 267.008 M 356.750 289.264 C 354.498 294.741, 354.532 298.266, 356.855 300.369 C 359.172 302.465, 361.837 301.559, 363.096 298.247 C 363.827 296.326, 363.483 294.551, 361.575 290.383 C 360.220 287.422, 358.973 285.002, 358.805 285.004 C 358.637 285.006, 357.712 286.923, 356.750 289.264" stroke="none" fill="#ffffff" fill-rule="evenodd"/><path d="M 38.927 224.635 C 40.933 227.185, 41 228.382, 41 261.701 C 41 296.820, 40.800 298.867, 37.087 301.718 C 35.791 302.713, 36.738 302.942, 42.250 302.968 L 49 303 49 262.500 L 49 222 42.927 222 L 36.855 222 38.927 224.635 M 326 223.856 C 326 224.944, 326.369 225.983, 326.820 226.167 C 328.651 226.911, 364 293.139, 364 295.825 C 364 298.811, 362.436 301.380, 360 302.395 C 359.175 302.738, 360.053 302.783, 361.952 302.494 C 363.850 302.206, 366.481 300.964, 367.797 299.735 C 369.755 297.906, 370.109 296.770, 369.744 293.481 C 369.158 288.200, 367.894 285.622, 349.176 251.500 L 333.268 222.500 329.634 222.190 C 326.576 221.928, 326 222.193, 326 223.856 M 391.976 223.250 C 391.964 223.938, 391.974 240.766, 391.999 260.646 L 392.046 296.792 389.434 299.896 L 386.822 303 395.600 303 L 404.377 303 402.189 300.961 C 400.010 298.932, 400 298.739, 400 260.461 L 400 222 396 222 C 393.479 222, 391.991 222.462, 391.976 223.250 M 294.228 236.647 C 293.577 239.753, 292.289 243.128, 291.367 244.147 C 289.068 246.687, 291.005 246.476, 295.010 243.750 C 298.943 241.073, 301.574 237.523, 302.421 233.750 C 303.011 231.123, 302.868 231, 299.225 231 L 295.413 231 294.228 236.647 M 555.741 235.604 C 555.456 238.136, 554.259 241.511, 553.081 243.104 C 550.488 246.612, 552.056 246.904, 556.635 243.767 C 560.018 241.449, 564 235.419, 564 232.614 C 564 231.407, 563.025 231, 560.130 231 C 556.272 231, 556.258 231.015, 555.741 235.604 M 188.157 246.925 C 195.838 249.389, 201.402 255.828, 202.568 263.603 C 203.192 267.763, 203.349 267.926, 206.608 267.803 C 210.401 267.661, 210.759 266.564, 208.862 260.899 C 206.114 252.691, 199.764 247.770, 190.500 246.668 C 187.066 246.259, 186.333 246.340, 188.157 246.925 M 89.471 249.380 C 90.780 250.689, 92.515 253.994, 93.325 256.723 C 95.423 263.787, 97.791 268.001, 106.837 280.764 C 111.228 286.960, 115.844 294.497, 117.094 297.514 C 119.072 302.286, 119.727 303, 122.125 303 C 123.641 303, 125.154 302.560, 125.486 302.023 C 126.915 299.710, 123.432 292.488, 115.536 281.394 C 104.426 265.783, 100.985 259.257, 100.285 252.468 L 99.720 247 93.406 247 L 87.091 247 89.471 249.380 M 142.743 248.250 C 143.287 248.938, 143.904 250.029, 144.116 250.676 C 144.359 251.422, 145.527 250.964, 147.306 249.426 L 150.112 247 145.933 247 C 142.730 247, 141.986 247.292, 142.743 248.250 M 217.944 248.944 C 220.019 251.019, 220.851 254.443, 221.251 262.555 L 221.500 267.610 225.811 261.708 C 228.182 258.462, 229.644 256.102, 229.061 256.462 C 228.366 256.892, 228 255.371, 228 252.059 L 228 247 222 247 C 216.057 247, 216.019 247.019, 217.944 248.944 M 245.267 248.088 C 250.581 249.340, 253.544 251.543, 255.651 255.809 C 257.222 258.989, 257.476 262.151, 257.487 278.642 C 257.499 296.071, 257.330 297.972, 255.595 299.892 L 253.690 302 261.500 302 L 269.310 302 267.405 299.898 C 265.713 298.031, 265.444 295.653, 264.999 278.648 C 264.465 258.259, 263.977 256.095, 258.845 251.317 C 255.589 248.285, 251.678 246.983, 246.185 247.100 L 241.500 247.201 245.267 248.088 M 291 266.864 C 291 294.831, 292.617 301.130, 300.079 302.225 C 303.511 302.729, 303.516 302.716, 301.250 299.262 C 299.727 296.940, 299.458 293.374, 299.173 271.797 L 298.846 247 294.923 247 L 291 247 291 266.864 M 446.500 247.404 C 447.050 247.635, 448.703 248.089, 450.173 248.412 C 456.316 249.762, 462.928 258.610, 462.978 265.549 C 462.999 268.461, 463.163 268.579, 466.615 268.176 C 470.196 267.758, 470.225 267.717, 469.701 263.804 C 468.548 255.209, 460.571 248.311, 450.788 247.449 C 447.880 247.192, 445.950 247.172, 446.500 247.404 M 512.635 247.953 C 514.360 248.364, 517.134 249.671, 518.799 250.857 C 522.121 253.222, 527 262.051, 527 265.696 C 527 267.662, 527.513 268, 530.500 268 C 533.469 268, 533.997 267.659, 533.978 265.750 C 533.940 261.860, 530.405 255.480, 526.508 252.268 C 522.791 249.204, 516.250 246.905, 511.807 247.102 C 509.992 247.183, 510.169 247.364, 512.635 247.953 M 553.200 271.429 C 553.482 294.426, 553.623 296.024, 555.599 298.679 C 556.989 300.547, 558.783 301.607, 560.910 301.818 L 564.122 302.136 562.339 298.818 C 560.772 295.901, 560.553 292.571, 560.528 271.253 L 560.500 247.006 556.700 247.003 L 552.901 247 553.200 271.429 M 171.973 250.653 C 162.821 256.773, 159.024 263.925, 159.010 275.071 C 159.002 281.360, 159.465 283.559, 161.750 288.064 C 166.471 297.372, 174.797 302.112, 186 301.870 L 191.500 301.750 186.112 300.968 C 178.601 299.876, 173.273 295.885, 169.513 288.532 C 166.806 283.240, 166.503 281.719, 166.530 273.571 C 166.563 263.548, 168.734 256.979, 173.741 251.750 C 176.675 248.686, 175.762 248.119, 171.973 250.653 M 495.827 251.895 C 487.326 257.286, 483 265.176, 483 275.290 C 483 292.629, 493.951 303.270, 511.365 302.853 L 517.500 302.706 512 302.088 C 501.034 300.856, 494.418 294.724, 491.423 283.015 C 488.472 271.479, 491.565 258.224, 498.661 251.993 C 502.981 248.199, 501.723 248.156, 495.827 251.895 M 431.475 252.432 C 417.889 260.577, 414.920 282.158, 425.738 294.132 C 431.216 300.195, 436.084 302.283, 445.500 302.606 C 452.794 302.857, 453.014 302.812, 448 302.097 C 439.057 300.823, 435.061 298.041, 429.912 289.500 C 427.751 285.917, 427.500 284.354, 427.500 274.500 C 427.500 264.873, 427.795 262.938, 429.863 259 C 431.162 256.525, 433.153 253.488, 434.287 252.250 C 436.889 249.411, 436.470 249.438, 431.475 252.432 M 224.500 267.739 C 221.674 272.203, 221.471 273.211, 221 285.137 C 220.581 295.734, 220.190 298.138, 218.595 299.898 L 216.690 302 224.500 302 L 232.310 302 230.405 299.898 C 228.732 298.052, 228.439 295.679, 228 280.399 L 227.500 263.001 224.500 267.739 M 323.814 300.250 L 321.128 303 326.314 302.968 C 330.588 302.942, 331.223 302.722, 329.927 301.718 C 329.062 301.048, 327.937 299.825, 327.427 299 C 326.648 297.739, 326.072 297.939, 323.814 300.250 M 74 302 C 71.769 302.715, 71.903 302.811, 75.250 302.900 C 77.313 302.955, 79 302.550, 79 302 C 79 300.855, 77.575 300.855, 74 302" stroke="none" fill="#a56cc1" fill-rule="evenodd"/><path d="M 333.500 31.567 C 325.135 35.902, 313.004 52.856, 303.852 73 C 299.960 81.568, 301.296 79.868, 308.963 66.500 C 317.297 51.969, 324.834 41.329, 330.481 36.124 C 334.413 32.500, 335.615 31.929, 338.758 32.192 C 341.652 32.434, 342.922 33.224, 344.718 35.898 C 347.323 39.776, 347.724 39.300, 345.490 34.980 C 342.895 29.963, 338.829 28.805, 333.500 31.567 M 301.150 37.319 C 299.270 39.584, 297.095 51.071, 296.572 61.500 C 296.020 72.479, 296.617 70.662, 299.435 52.784 C 300.277 47.440, 301.578 41.590, 302.325 39.784 L 303.683 36.500 305.919 40 C 307.696 42.782, 308.011 42.987, 307.455 41 C 306.111 36.200, 303.395 34.614, 301.150 37.319 M 257.355 48.597 C 255.625 49.450, 253.150 51.303, 251.855 52.714 L 249.500 55.279 253.500 52.701 C 258.845 49.255, 262.165 48.569, 266.533 50.011 C 273.447 52.293, 282.175 62.337, 288.896 75.750 C 292.416 82.772, 293.595 83.883, 291.550 78.250 C 288.686 70.365, 286.641 66.275, 282.237 59.628 C 274.767 48.353, 265.857 44.403, 257.355 48.597 M 245.469 59.050 C 244.519 60.588, 245.820 61.580, 247.104 60.296 C 247.822 59.578, 247.839 59.019, 247.156 58.597 C 246.596 58.251, 245.837 58.455, 245.469 59.050 M 327.775 65.004 C 321.084 67.082, 315.787 70.442, 308.929 76.956 L 303.500 82.113 312.010 75.761 C 321.698 68.530, 327.592 65.833, 333.711 65.833 C 340.027 65.833, 344.516 67.685, 348.103 71.770 L 351.306 75.418 344.903 76.611 C 335.889 78.291, 325.742 82.330, 317.262 87.616 C 313.268 90.105, 310 92.263, 310 92.411 C 310 92.558, 315.063 90.149, 321.250 87.057 C 333.171 81.099, 340.128 79, 347.955 79 C 353.167 79, 353.542 79.426, 355.869 88 C 356.405 89.974, 356.857 90.628, 356.904 89.500 C 356.951 88.400, 356.509 85.770, 355.922 83.656 C 355.335 81.542, 355.063 79.603, 355.319 79.348 C 356.323 78.344, 363.704 82.292, 367.379 85.799 C 373.761 91.889, 378.695 105.311, 380.318 121 C 380.575 123.486, 380.726 122.967, 380.840 119.208 C 381.068 111.657, 378.403 99.516, 374.947 92.358 C 371.176 84.549, 365.688 79.547, 358.648 77.500 C 354.244 76.220, 352.719 75.173, 350.608 71.984 C 349.176 69.820, 346.823 67.275, 345.380 66.329 C 341.307 63.661, 333.894 63.102, 327.775 65.004 M 261.207 70.669 C 257.869 72.314, 253.674 78.316, 252.486 83.146 C 251.963 85.273, 250.656 86.222, 245.823 87.984 C 242.516 89.190, 238.057 91.760, 235.915 93.696 C 231.586 97.607, 226.431 107.358, 225.446 113.500 C 224.884 117.004, 225.293 116.509, 228.750 109.500 C 230.920 105.100, 233.936 100.029, 235.453 98.230 C 238.208 94.964, 244.589 90.776, 248.653 89.567 C 250.683 88.964, 250.757 89.142, 249.958 92.685 C 248.782 97.902, 249.591 98.098, 251.128 92.969 L 252.394 88.743 260.447 89.284 C 264.876 89.582, 270.467 90.539, 272.871 91.411 C 276.633 92.776, 277.070 92.789, 276.005 91.506 C 274.426 89.603, 262.409 86, 257.642 86 C 253.194 86, 253.110 85.085, 256.945 78.398 C 262.659 68.435, 268.662 68.930, 280.829 80.367 C 288.510 87.587, 287.626 85.391, 279.414 76.850 C 274.842 72.096, 269.645 68.982, 266.349 69.023 C 265.332 69.035, 263.018 69.776, 261.207 70.669 M 314.500 80.417 C 312.850 81.154, 310.150 83.248, 308.500 85.070 L 305.500 88.384 308.500 86.486 C 310.150 85.442, 313.750 83.338, 316.500 81.812 C 321.693 78.929, 320.187 77.879, 314.500 80.417 M 295.737 87.977 C 294.768 91.290, 293.616 94, 293.178 94 C 292.741 94, 289.767 92.425, 286.570 90.500 C 283.373 88.575, 280.549 87, 280.294 87 C 280.039 87, 281.668 89.088, 283.915 91.641 C 286.162 94.193, 288 96.855, 288 97.556 C 288 98.257, 285.916 100.664, 283.369 102.906 L 278.739 106.982 284.526 104.991 C 287.709 103.896, 291.125 103, 292.118 103 C 293.110 103, 296.439 105.050, 299.516 107.556 C 304.573 111.676, 304.972 111.843, 303.681 109.306 C 302.896 107.763, 301.935 105.467, 301.545 104.205 C 300.854 101.967, 300.970 101.923, 306.168 102.459 L 311.500 103.009 306.151 100.481 L 300.801 97.952 302.525 95.321 C 304.373 92.501, 304.576 92.551, 299.548 94.589 C 298.381 95.062, 298.037 93.877, 297.798 88.566 L 297.500 81.954 295.737 87.977 M 318 95.920 C 316.275 96.417, 318.135 96.818, 324 97.216 C 342.491 98.468, 353.607 106.193, 358.636 121.286 L 360.041 125.500 359.540 120.756 C 358.382 109.772, 350.392 100.437, 339.186 96.976 C 332.792 95.001, 322.901 94.508, 318 95.920 M 268.224 100.971 C 261.264 103.475, 257.385 105.967, 252.316 111.189 C 245.460 118.252, 240.907 129.822, 241.055 139.799 C 241.102 142.951, 241.383 142.462, 242.948 136.500 C 247.878 117.723, 257.046 106.969, 272.893 101.374 C 277.920 99.600, 278.782 99.046, 276.500 99.057 C 274.850 99.065, 271.126 99.927, 268.224 100.971 M 323.593 102.407 C 326.394 103.087, 330.394 104.699, 332.482 105.989 C 337.253 108.938, 336.849 106.519, 332.025 103.250 C 329.590 101.600, 327.343 101.023, 323.602 101.085 L 318.500 101.170 323.593 102.407 M 268.791 109.020 C 264.948 112.189, 260.623 120.065, 259.470 126 C 258.526 130.853, 260.157 128.872, 263.106 121.583 C 264.423 118.328, 267.454 113.491, 269.843 110.833 C 274.753 105.368, 274.258 104.514, 268.791 109.020 M 323.739 110.250 C 330.751 117.527, 337.865 132.580, 343.138 151.299 C 345.200 158.619, 345.843 160.100, 345.414 156.544 C 344.389 148.053, 340.180 134.880, 335.493 125.500 C 331.054 116.614, 323.900 107, 321.726 107 C 321.111 107, 322.017 108.463, 323.739 110.250 M 310 109.508 C 310 109.852, 311.092 111.566, 312.428 113.317 C 316.355 118.467, 318.925 129.830, 320.047 147 C 321.496 169.185, 321.877 169.960, 321.522 150 C 321.182 130.817, 319.726 123.328, 314.658 114.679 C 312.174 110.440, 310 108.027, 310 109.508 M 280.197 116.220 C 271.647 129.391, 266.299 142.844, 265.469 153.270 L 264.973 159.500 266.933 152 C 269.522 142.091, 272.496 134.751, 279.286 121.515 C 282.375 115.494, 284.760 110.427, 284.588 110.254 C 284.415 110.082, 282.439 112.766, 280.197 116.220 M 287.915 114.159 C 287.229 115.440, 286.530 119.866, 286.360 123.994 C 286.010 132.518, 287.150 130.170, 288.785 119 C 289.858 111.671, 289.704 110.816, 287.915 114.159 M 296.554 113.500 C 298.066 118.472, 300.109 131.227, 300.678 139.246 C 301.021 144.078, 301.506 147.827, 301.756 147.577 C 302.655 146.678, 302.079 130.698, 300.952 125.270 C 300.319 122.220, 298.934 117.874, 297.874 115.612 C 296.813 113.351, 296.220 112.400, 296.554 113.500 M 222.459 123.067 C 222.096 123.653, 222.040 124.373, 222.333 124.667 C 223.050 125.383, 225 124.121, 225 122.941 C 225 121.663, 223.274 121.748, 222.459 123.067 M 359 131.500 C 359 132.325, 359.450 133, 360 133 C 360.550 133, 361 132.325, 361 131.500 C 361 130.675, 360.550 130, 360 130 C 359.450 130, 359 130.675, 359 131.500 M 380 136.500 C 380 137.325, 380.450 138, 381 138 C 381.550 138, 382 137.325, 382 136.500 C 382 135.675, 381.550 135, 381 135 C 380.450 135, 380 135.675, 380 136.500 M 380 142.500 C 380 143.325, 380.450 144, 381 144 C 381.550 144, 382 143.325, 382 142.500 C 382 141.675, 381.550 141, 381 141 C 380.450 141, 380 141.675, 380 142.500 M 240 148.500 C 240 149.325, 240.450 150, 241 150 C 241.550 150, 242 149.325, 242 148.500 C 242 147.675, 241.550 147, 241 147 C 240.450 147, 240 147.675, 240 148.500 M 301 155.059 C 301 156.191, 301.450 156.840, 302 156.500 C 302.550 156.160, 303 155.234, 303 154.441 C 303 153.648, 302.550 153, 302 153 C 301.450 153, 301 153.927, 301 155.059 M 34.083 221.250 C 34.313 221.387, 35.847 222.625, 37.493 224 C 40.225 226.282, 40.317 226.301, 38.553 224.212 L 36.621 221.924 57.376 222.063 C 68.792 222.139, 78.402 221.931, 78.733 221.601 C 79.063 221.270, 69.058 221, 56.500 221 C 43.942 221, 33.854 221.113, 34.083 221.250 M 327.762 221.707 C 329.006 221.946, 330.806 221.937, 331.762 221.687 C 332.718 221.437, 331.700 221.241, 329.500 221.252 C 327.300 221.263, 326.518 221.468, 327.762 221.707 M 394.762 221.707 C 396.006 221.946, 397.806 221.937, 398.762 221.687 C 399.718 221.437, 398.700 221.241, 396.500 221.252 C 394.300 221.263, 393.518 221.468, 394.762 221.707 M 390.758 251.249 C 390.900 265.687, 391.143 281.775, 391.298 287 C 391.454 292.225, 391.676 280.413, 391.791 260.750 C 391.906 241.088, 391.663 225, 391.250 224.999 C 390.837 224.999, 390.616 236.811, 390.758 251.249 M 388.046 228.914 C 387.432 230.062, 387.347 231, 387.858 231 C 388.886 231, 390.304 227.971, 389.605 227.271 C 389.361 227.028, 388.660 227.767, 388.046 228.914 M 40.449 262.500 C 40.449 281.200, 40.584 288.709, 40.749 279.186 C 40.913 269.663, 40.913 254.363, 40.748 245.186 C 40.583 236.009, 40.449 243.800, 40.449 262.500 M 383.750 237.014 C 382.238 239.756, 381.338 241.996, 381.750 241.992 C 382.163 241.987, 383.689 239.737, 385.141 236.992 C 386.594 234.246, 387.494 232.006, 387.141 232.014 C 386.789 232.022, 385.263 234.272, 383.750 237.014 M 290 244.500 C 289.315 245.325, 289.148 246.053, 289.628 246.118 C 290.107 246.183, 289.150 246.580, 287.500 247 L 284.500 247.763 287.857 247.882 C 290.328 247.969, 291.074 247.636, 290.685 246.622 C 290.394 245.864, 290.661 244.739, 291.278 244.122 C 291.895 243.505, 292.140 243, 291.822 243 C 291.505 243, 290.685 243.675, 290 244.500 M 378.642 246.624 C 376.286 251.565, 377.023 251.782, 379.681 246.931 C 380.865 244.769, 381.505 243, 381.102 243 C 380.700 243, 379.593 244.631, 378.642 246.624 M 546.861 247.107 C 545.936 247.693, 546.540 247.974, 548.750 247.985 C 550.538 247.993, 552 247.827, 552 247.617 C 552 246.707, 548.102 246.321, 546.861 247.107 M 299.447 248.278 C 299.177 248.981, 299.089 258.544, 299.251 269.528 L 299.545 289.500 299.772 268.810 L 300 248.121 303.750 247.728 L 307.500 247.336 303.719 247.168 C 301.437 247.067, 299.743 247.507, 299.447 248.278 M 562.762 247.707 C 564.006 247.946, 565.806 247.937, 566.762 247.687 C 567.718 247.437, 566.700 247.241, 564.500 247.252 C 562.300 247.263, 561.518 247.468, 562.762 247.707 M 231.437 253.250 L 228.500 256.500 231.750 253.563 C 234.779 250.825, 235.460 250, 234.687 250 C 234.515 250, 233.052 251.463, 231.437 253.250 M 144.252 252.250 C 143.706 252.938, 140.993 259.575, 138.222 267 C 135.452 274.425, 131.997 283.649, 130.544 287.499 C 129.091 291.348, 128.340 294.048, 128.875 293.499 C 129.410 292.949, 133.024 283.950, 136.907 273.500 C 140.789 263.050, 144.427 253.713, 144.991 252.750 C 146.176 250.728, 145.711 250.413, 144.252 252.250 M 372.679 257.546 C 370.330 262.473, 370.661 263.311, 373.116 258.656 C 374.232 256.541, 374.968 254.634, 374.752 254.418 C 374.535 254.202, 373.603 255.610, 372.679 257.546 M 67.083 263.361 C 67.313 263.559, 69.525 263.989, 72 264.317 C 75.005 264.714, 75.835 264.617, 74.500 264.026 C 72.590 263.180, 66.215 262.609, 67.083 263.361 M 367.162 267.543 C 365.487 271.220, 365.807 272.005, 367.618 268.662 C 368.464 267.100, 368.969 265.636, 368.741 265.407 C 368.512 265.179, 367.802 266.140, 367.162 267.543 M 166.252 273.500 C 166.263 275.700, 166.468 276.482, 166.707 275.238 C 166.946 273.994, 166.937 272.194, 166.687 271.238 C 166.437 270.282, 166.241 271.300, 166.252 273.500 M 217.224 273.580 C 215.991 275.461, 215.339 277, 215.775 277 C 216.212 277, 217.371 275.642, 218.351 273.982 C 219.332 272.323, 220.523 271.205, 220.998 271.499 C 221.473 271.792, 222.087 271.669, 222.362 271.224 C 222.637 270.779, 222.097 270.358, 221.164 270.287 C 220.230 270.217, 218.457 271.699, 217.224 273.580 M 363.232 274 C 362.545 275.100, 362.329 276, 362.751 276 C 363.173 276, 364.081 275.100, 364.768 274 C 365.455 272.900, 365.671 272, 365.249 272 C 364.827 272, 363.919 272.900, 363.232 274 M 177.186 275.980 C 172.507 279.370, 169.947 283.613, 170.115 287.700 C 170.219 290.231, 170.297 290.163, 170.922 287 C 171.853 282.289, 174.504 278.470, 178.603 275.936 C 181.606 274.081, 182.727 273, 181.650 273 C 181.458 273, 179.449 274.341, 177.186 275.980 M 435.744 278.460 C 432.535 281.576, 429.126 288.460, 430.240 289.573 C 430.482 289.815, 431.205 288.259, 431.847 286.116 C 432.535 283.819, 434.655 280.738, 437.010 278.610 C 439.208 276.624, 440.623 275, 440.156 275 C 439.689 275, 437.704 276.557, 435.744 278.460 M 497.589 280.077 C 494.737 283.466, 493.570 286.865, 494.295 289.671 C 494.576 290.758, 494.815 290.242, 494.884 288.400 C 494.948 286.692, 496.350 283.436, 498.006 281.150 C 501.533 276.281, 501.296 275.671, 497.589 280.077 M 212.703 280.598 C 211.715 281.919, 211.362 283, 211.918 283 C 212.930 283, 215.455 279.109, 214.831 278.512 C 214.649 278.338, 213.691 279.277, 212.703 280.598 M 356.184 287.496 C 355.556 288.873, 355.431 290, 355.905 290 C 356.735 290, 358.231 285.898, 357.623 285.289 C 357.459 285.126, 356.811 286.118, 356.184 287.496 M 469.314 286.750 C 468.972 287.712, 468.509 288.837, 468.287 289.250 C 468.064 289.663, 468.306 290, 468.824 290 C 469.343 290, 469.982 288.875, 470.245 287.500 C 470.795 284.623, 470.233 284.170, 469.314 286.750 M 533.073 286 C 533.026 286.825, 532.342 288.738, 531.553 290.250 C 530.764 291.762, 530.487 293, 530.938 293 C 532.132 293, 534.291 287.328, 533.679 285.801 C 533.298 284.849, 533.135 284.902, 533.073 286 M 206 289.500 C 205.293 290.352, 204.940 291.273, 205.215 291.548 C 205.490 291.823, 206.293 291.352, 207 290.500 C 207.707 289.648, 208.060 288.727, 207.785 288.452 C 207.510 288.177, 206.707 288.648, 206 289.500 M 464.323 295.250 C 463.209 296.488, 461.967 298.175, 461.562 299 C 461.157 299.825, 461.653 299.600, 462.663 298.500 C 463.673 297.400, 465.384 295.712, 466.464 294.750 C 467.545 293.788, 467.961 293, 467.389 293 C 466.817 293, 465.437 294.012, 464.323 295.250 M 528.278 295.250 C 525.880 298.351, 525.911 299.287, 528.339 297.076 C 529.802 295.742, 531 294.505, 531 294.326 C 531 293.499, 529.145 294.129, 528.278 295.250 M 126.947 297.639 C 126.395 299.090, 126.130 300.463, 126.356 300.690 C 126.583 300.917, 127.247 299.729, 127.832 298.051 C 129.133 294.321, 128.348 293.955, 126.947 297.639 M 53.750 302.737 C 56.638 302.939, 61.362 302.939, 64.250 302.737 C 67.138 302.535, 64.775 302.370, 59 302.370 C 53.225 302.370, 50.862 302.535, 53.750 302.737 M 508.250 303.689 C 509.212 303.941, 510.788 303.941, 511.750 303.689 C 512.712 303.438, 511.925 303.232, 510 303.232 C 508.075 303.232, 507.288 303.438, 508.250 303.689" stroke="none" fill="#a6acec" fill-rule="evenodd"/><path d="M 326.217 261.750 C 326.337 281.413, 326.560 291.875, 326.713 285 C 327.416 253.401, 327.433 225.998, 326.750 225.999 C 326.337 226, 326.098 242.088, 326.217 261.750 M 550.230 246.627 C 551.786 247.087, 551.991 249.231, 552.260 267.820 L 552.560 288.500 552.530 267.513 C 552.501 247.272, 552.429 246.519, 550.500 246.320 C 548.983 246.164, 548.918 246.238, 550.230 246.627 M 228.300 252 C 228.300 255.025, 228.487 256.262, 228.716 254.750 C 228.945 253.238, 228.945 250.762, 228.716 249.250 C 228.487 247.738, 228.300 248.975, 228.300 252 M 560.423 268.500 C 560.424 280.050, 560.570 284.638, 560.747 278.696 C 560.924 272.753, 560.923 263.303, 560.745 257.696 C 560.567 252.088, 560.422 256.950, 560.423 268.500 M 220.349 262 C 220.349 266.675, 220.522 268.587, 220.732 266.250 C 220.943 263.913, 220.943 260.087, 220.732 257.750 C 220.522 255.412, 220.349 257.325, 220.349 262 M 228.411 279 C 228.411 288.625, 228.561 292.563, 228.745 287.750 C 228.928 282.938, 228.928 275.063, 228.745 270.250 C 228.561 265.438, 228.411 269.375, 228.411 279 M 257.402 280 C 257.402 288.525, 257.556 292.012, 257.743 287.750 C 257.931 283.488, 257.931 276.512, 257.743 272.250 C 257.556 267.988, 257.402 271.475, 257.402 280 M 265.402 281 C 265.402 289.525, 265.556 293.012, 265.743 288.750 C 265.931 284.488, 265.931 277.512, 265.743 273.250 C 265.556 268.988, 265.402 272.475, 265.402 281 M 467 268 L 463.500 268.737 466.691 268.868 C 468.446 268.941, 470.160 268.550, 470.500 268 C 470.840 267.450, 470.979 267.059, 470.809 267.132 C 470.639 267.204, 468.925 267.595, 467 268 M 527.750 268.706 C 528.987 268.944, 531.013 268.944, 532.250 268.706 C 533.487 268.467, 532.475 268.272, 530 268.272 C 527.525 268.272, 526.513 268.467, 527.750 268.706 M 220.378 285 C 220.378 291.325, 220.541 293.913, 220.739 290.750 C 220.937 287.587, 220.937 282.413, 220.739 279.250 C 220.541 276.087, 220.378 278.675, 220.378 285 M 215.343 302.250 C 215.090 302.663, 219.296 302.928, 224.691 302.840 C 234.634 302.678, 233.694 302.285, 222.152 301.778 C 218.661 301.625, 215.597 301.837, 215.343 302.250 M 252.343 302.250 C 252.090 302.663, 256.296 302.928, 261.691 302.840 C 271.634 302.678, 270.694 302.285, 259.152 301.778 C 255.661 301.625, 252.597 301.837, 252.343 302.250" stroke="none" fill="#a678ca" fill-rule="evenodd"/><path d="M 304.500 81.625 C 302.702 83.155, 302.334 83.763, 303.582 83.143 C 305.415 82.233, 308.853 78.941, 307.872 79.036 C 307.668 79.056, 306.150 80.221, 304.500 81.625 M 298.116 89.750 C 298.052 92.638, 298.360 95, 298.799 95 C 299.239 95, 299.438 93.313, 299.242 91.250 C 298.630 84.819, 298.237 84.295, 298.116 89.750 M 278 99 C 279.939 100.253, 281 100.253, 281 99 C 281 98.450, 279.988 98.007, 278.750 98.015 C 276.931 98.028, 276.787 98.216, 278 99 M 301.437 109.754 C 303.052 111.539, 304.852 112.964, 305.437 112.921 C 306.022 112.878, 305.935 112.614, 305.244 112.336 C 304.553 112.057, 304.287 111.305, 304.654 110.665 C 305.021 110.024, 304.944 109.842, 304.485 110.259 C 304.025 110.677, 302.490 110.003, 301.074 108.763 C 298.983 106.931, 299.051 107.117, 301.437 109.754 M 380.420 124.575 C 380.008 126.770, 380.184 128.584, 380.875 129.275 C 381.708 130.108, 382 129.182, 382 125.700 C 382 120.103, 381.346 119.638, 380.420 124.575 M 322.252 152.500 C 322.263 154.700, 322.468 155.482, 322.707 154.238 C 322.946 152.994, 322.937 151.194, 322.687 150.238 C 322.437 149.282, 322.241 150.300, 322.252 152.500 M 320.229 162.500 C 320.173 168, 320.457 171.600, 320.860 170.500 C 321.263 169.400, 321.309 164.900, 320.962 160.500 L 320.331 152.500 320.229 162.500 M 264.070 157.691 C 264.032 158.896, 264.450 160.160, 265 160.500 C 266.183 161.231, 266.183 160.252, 265 157.500 C 264.171 155.572, 264.138 155.579, 264.070 157.691 M 87 246.620 C 92.804 247.364, 102.004 247.443, 102.002 246.750 C 102.001 246.338, 98.063 246.067, 93.250 246.150 C 88.438 246.232, 85.625 246.444, 87 246.620 M 139.086 246.419 C 139.817 247.150, 151.956 247.378, 152.659 246.674 C 153.030 246.303, 150.033 246, 146 246 C 141.967 246, 138.855 246.189, 139.086 246.419 M 213.327 246.660 C 214.027 247.361, 228.186 247.147, 228.908 246.425 C 229.142 246.191, 225.583 246, 221 246 C 216.417 246, 212.964 246.297, 213.327 246.660 M 245.250 246.689 C 246.213 246.941, 247.787 246.941, 248.750 246.689 C 249.713 246.438, 248.925 246.232, 247 246.232 C 245.075 246.232, 244.287 246.438, 245.250 246.689 M 64 264 C 64 264.550, 64.927 265, 66.059 265 C 67.191 265, 67.840 264.550, 67.500 264 C 67.160 263.450, 66.234 263, 65.441 263 C 64.648 263, 64 263.450, 64 264 M 55 265 C 55 265.550, 55.900 266, 57 266 C 58.100 266, 59 265.550, 59 265 C 59 264.450, 58.100 264, 57 264 C 55.900 264, 55 264.450, 55 265 M 199 268 C 199 268.550, 199.675 269, 200.500 269 C 201.325 269, 202 268.550, 202 268 C 202 267.450, 201.325 267, 200.500 267 C 199.675 267, 199 267.450, 199 268 M 418.232 276 C 418.232 277.925, 418.438 278.712, 418.689 277.750 C 418.941 276.788, 418.941 275.212, 418.689 274.250 C 418.438 273.288, 418.232 274.075, 418.232 276" stroke="none" fill="#fbfbfb" fill-rule="evenodd"/></svg>